<svg width="355" height="212" fill="none" xmlns="http://www.w3.org/2000/svg"><path fill-rule="evenodd" clip-rule="evenodd" d="M5.729 112.892c0 1.548-1.282 2.8-2.864 2.8-1.583 0-2.865-1.255-2.865-2.8 0-1.547 1.282-2.8 2.865-2.8 1.58 0 2.864 1.253 2.864 2.8zM5.729 130.252c0 1.545-1.282 2.801-2.864 2.801-1.583 0-2.865-1.256-2.865-2.801 0-1.547 1.282-2.8 2.865-2.8 1.58 0 2.864 1.253 2.864 2.8zM5.729 147.609c0 1.548-1.282 2.8-2.864 2.8-1.583 0-2.865-1.252-2.865-2.8 0-1.547 1.282-2.8 2.865-2.8 1.58.003 2.864 1.256 2.864 2.8zM5.729 164.969c0 1.548-1.282 2.801-2.864 2.801-1.583 0-2.865-1.253-2.865-2.801 0-1.547 1.282-2.8 2.865-2.8 1.58 0 2.864 1.256 2.864 2.8zM5.729 182.329c0 1.548-1.282 2.801-2.864 2.801-1.583 0-2.865-1.253-2.865-2.801 0-1.547 1.282-2.8 2.865-2.8 1.58 0 2.864 1.256 2.864 2.8zM5.729 199.689c0 1.548-1.282 2.801-2.864 2.801-1.583 0-2.865-1.253-2.865-2.801 0-1.547 1.282-2.8 2.865-2.8 1.58 0 2.864 1.253 2.864 2.8zM23.484 112.892c0 1.548-1.282 2.8-2.865 2.8-1.582 0-2.864-1.252-2.864-2.8 0-1.547 1.282-2.8 2.864-2.8 1.583 0 2.865 1.253 2.865 2.8zM23.484 130.252c0 1.545-1.282 2.801-2.865 2.801-1.582 0-2.864-1.253-2.864-2.801 0-1.547 1.282-2.8 2.864-2.8 1.583 0 2.865 1.253 2.865 2.8zM23.484 147.609c0 1.548-1.282 2.8-2.865 2.8-1.582 0-2.864-1.252-2.864-2.8 0-1.547 1.282-2.8 2.864-2.8 1.583.003 2.865 1.256 2.865 2.8zM23.484 164.969c0 1.548-1.282 2.801-2.865 2.801-1.582 0-2.864-1.253-2.864-2.801 0-1.547 1.282-2.8 2.864-2.8 1.583 0 2.865 1.256 2.865 2.8zM23.484 182.329c0 1.548-1.282 2.801-2.865 2.801-1.582 0-2.864-1.253-2.864-2.801 0-1.547 1.282-2.8 2.864-2.8 1.583 0 2.865 1.256 2.865 2.8zM23.484 199.689c0 1.548-1.282 2.801-2.865 2.801-1.582 0-2.864-1.253-2.864-2.801 0-1.547 1.282-2.8 2.864-2.8 1.583 0 2.865 1.253 2.865 2.8zM41.242 112.892c0 1.548-1.282 2.8-2.865 2.8-1.583 0-2.864-1.252-2.864-2.8 0-1.547 1.282-2.8 2.864-2.8 1.583 0 2.865 1.253 2.865 2.8zM41.242 130.252c0 1.545-1.282 2.801-2.865 2.801-1.583 0-2.864-1.253-2.864-2.801 0-1.547 1.282-2.8 2.864-2.8 1.583 0 2.865 1.253 2.865 2.8zM41.242 147.609c0 1.548-1.282 2.8-2.865 2.8-1.583 0-2.864-1.252-2.864-2.8 0-1.547 1.282-2.8 2.864-2.8 1.583.003 2.865 1.256 2.865 2.8zM41.242 164.969c0 1.548-1.282 2.801-2.865 2.801-1.583 0-2.864-1.253-2.864-2.801 0-1.547 1.282-2.8 2.864-2.8 1.583 0 2.865 1.256 2.865 2.8zM41.242 182.329c0 1.548-1.282 2.801-2.865 2.801-1.583 0-2.864-1.253-2.864-2.801 0-1.547 1.282-2.8 2.864-2.8 1.583 0 2.865 1.256 2.865 2.8zM41.242 199.689c0 1.548-1.282 2.801-2.865 2.801-1.583 0-2.864-1.253-2.864-2.801 0-1.547 1.282-2.8 2.864-2.8 1.583 0 2.865 1.253 2.865 2.8zM59 112.892c0 1.548-1.282 2.8-2.864 2.8-1.583 0-2.865-1.252-2.865-2.8 0-1.547 1.282-2.8 2.864-2.8 1.583 0 2.865 1.253 2.865 2.8zM59 130.252c0 1.545-1.282 2.801-2.864 2.801-1.583 0-2.865-1.253-2.865-2.801 0-1.547 1.282-2.8 2.864-2.8 1.583 0 2.865 1.253 2.865 2.8zM59 147.609c0 1.548-1.282 2.8-2.864 2.8-1.583 0-2.865-1.252-2.865-2.8 0-1.547 1.282-2.8 2.864-2.8 1.583.003 2.865 1.256 2.865 2.8zM59 164.969c0 1.548-1.282 2.801-2.864 2.801-1.583 0-2.865-1.253-2.865-2.801 0-1.547 1.282-2.8 2.864-2.8 1.583 0 2.865 1.256 2.865 2.8zM59 182.329c0 1.548-1.282 2.801-2.864 2.801-1.583 0-2.865-1.253-2.865-2.801 0-1.547 1.282-2.8 2.864-2.8 1.583 0 2.865 1.256 2.865 2.8zM59 199.689c0 1.548-1.282 2.801-2.864 2.801-1.583 0-2.865-1.253-2.865-2.801 0-1.547 1.282-2.8 2.864-2.8 1.583 0 2.865 1.253 2.865 2.8z" fill="#E9EAF9"></path><path d="M236.454 118.777c0 1.718-1.414 3.11-3.16 3.11-1.746 0-3.16-1.392-3.16-3.11 0-1.719 1.414-3.11 3.16-3.11 1.746 0 3.16 1.391 3.16 3.11zM256.321 118.777c0 1.718-1.414 3.11-3.161 3.11-1.746 0-3.16-1.392-3.16-3.11 0-1.719 1.414-3.11 3.16-3.11 1.747 0 3.161 1.391 3.161 3.11zM216.866 118.777c0 1.718-1.414 3.11-3.16 3.11-1.746 0-3.16-1.392-3.16-3.11 0-1.719 1.414-3.11 3.16-3.11 1.746 0 3.16 1.391 3.16 3.11zM197.321 118.777c0 1.718-1.414 3.11-3.161 3.11-1.746 0-3.16-1.392-3.16-3.11 0-1.719 1.414-3.11 3.16-3.11 1.747 0 3.161 1.391 3.161 3.11zM295.229 99.498c0 1.719-1.414 3.11-3.161 3.11-1.746 0-3.16-1.391-3.16-3.11 0-1.718 1.414-3.11 3.16-3.11 1.747.004 3.161 1.395 3.161 3.11zM275.637 99.498c0 1.719-1.413 3.11-3.16 3.11-1.746 0-3.16-1.391-3.16-3.11 0-1.718 1.414-3.11 3.16-3.11 1.747 0 3.16 1.395 3.16 3.11zM256.046 99.498c0 1.719-1.414 3.11-3.16 3.11-1.747 0-3.161-1.391-3.161-3.11 0-1.718 1.414-3.11 3.161-3.11 1.746.004 3.16 1.395 3.16 3.11zM236.454 99.498c0 1.719-1.414 3.11-3.16 3.11-1.746 0-3.16-1.391-3.16-3.11 0-1.718 1.414-3.11 3.16-3.11 1.746.004 3.16 1.395 3.16 3.11zM216.866 99.498c0 1.719-1.414 3.11-3.16 3.11-1.746 0-3.16-1.391-3.16-3.11 0-1.718 1.414-3.11 3.16-3.11 1.746 0 3.16 1.395 3.16 3.11zM197.275 99.498c0 1.719-1.414 3.11-3.161 3.11-1.746 0-3.16-1.391-3.16-3.11 0-1.718 1.414-3.11 3.16-3.11 1.743.004 3.161 1.395 3.161 3.11zM177.683 99.498c0 1.719-1.414 3.11-3.16 3.11-1.746 0-3.16-1.391-3.16-3.11 0-1.718 1.414-3.11 3.16-3.11 1.746.004 3.16 1.395 3.16 3.11zM158.092 99.498c0 1.719-1.414 3.11-3.161 3.11-1.746 0-3.16-1.391-3.16-3.11 0-1.718 1.414-3.11 3.16-3.11 1.747.004 3.161 1.395 3.161 3.11zM314.817 80.223c0 1.719-1.414 3.11-3.16 3.11-1.747 0-3.161-1.391-3.161-3.11 0-1.718 1.414-3.11 3.161-3.11 1.746 0 3.16 1.392 3.16 3.11zM295.229 80.223c0 1.719-1.414 3.11-3.161 3.11-1.746 0-3.16-1.391-3.16-3.11 0-1.718 1.414-3.11 3.16-3.11 1.747 0 3.161 1.392 3.161 3.11zM275.637 80.223c0 1.719-1.413 3.11-3.16 3.11-1.746 0-3.16-1.391-3.16-3.11 0-1.718 1.414-3.11 3.16-3.11 1.747 0 3.16 1.392 3.16 3.11zM256.046 80.223c0 1.719-1.414 3.11-3.16 3.11-1.747 0-3.161-1.391-3.161-3.11 0-1.718 1.414-3.11 3.161-3.11 1.746 0 3.16 1.392 3.16 3.11zM236.454 80.223c0 1.719-1.414 3.11-3.16 3.11-1.746 0-3.16-1.391-3.16-3.11 0-1.718 1.414-3.11 3.16-3.11 1.746 0 3.16 1.392 3.16 3.11zM216.866 80.223c0 1.719-1.414 3.11-3.16 3.11-1.746 0-3.16-1.391-3.16-3.11 0-1.718 1.414-3.11 3.16-3.11 1.746 0 3.16 1.392 3.16 3.11zM197.275 80.223c0 1.719-1.414 3.11-3.161 3.11-1.746 0-3.16-1.391-3.16-3.11 0-1.718 1.414-3.11 3.16-3.11 1.743 0 3.161 1.392 3.161 3.11zM177.683 80.223c0 1.719-1.414 3.11-3.16 3.11-1.746 0-3.16-1.391-3.16-3.11 0-1.718 1.414-3.11 3.16-3.11 1.746 0 3.16 1.392 3.16 3.11zM158.092 80.223c0 1.719-1.414 3.11-3.161 3.11-1.746 0-3.16-1.391-3.16-3.11 0-1.718 1.414-3.11 3.16-3.11 1.747 0 3.161 1.392 3.161 3.11zM138.5 80.223c0 1.719-1.414 3.11-3.16 3.11-1.747 0-3.161-1.391-3.161-3.11 0-1.718 1.414-3.11 3.161-3.11 1.746 0 3.16 1.392 3.16 3.11zM334.408 60.945c0 1.718-1.413 3.11-3.16 3.11-1.746 0-3.16-1.392-3.16-3.11s1.414-3.11 3.16-3.11c1.747 0 3.16 1.392 3.16 3.11zM314.817 60.945c0 1.718-1.414 3.11-3.16 3.11-1.747 0-3.161-1.392-3.161-3.11s1.414-3.11 3.161-3.11c1.746 0 3.16 1.392 3.16 3.11zM295.229 60.945c0 1.718-1.414 3.11-3.16 3.11-1.747 0-3.161-1.392-3.161-3.11s1.414-3.11 3.161-3.11c1.746 0 3.16 1.392 3.16 3.11zM275.637 60.945c0 1.718-1.413 3.11-3.16 3.11-1.746 0-3.16-1.392-3.16-3.11s1.414-3.11 3.16-3.11c1.747 0 3.16 1.392 3.16 3.11zM256.046 60.945c0 1.718-1.414 3.11-3.16 3.11-1.747 0-3.161-1.392-3.161-3.11s1.414-3.11 3.161-3.11c1.746 0 3.16 1.392 3.16 3.11zM236.454 60.945c0 1.718-1.414 3.11-3.16 3.11-1.746 0-3.16-1.392-3.16-3.11s1.414-3.11 3.16-3.11c1.746 0 3.16 1.392 3.16 3.11zM216.866 60.945c0 1.718-1.414 3.11-3.16 3.11-1.746 0-3.16-1.392-3.16-3.11s1.414-3.11 3.16-3.11c1.746 0 3.16 1.392 3.16 3.11zM197.275 60.945c0 1.718-1.414 3.11-3.161 3.11-1.746 0-3.16-1.392-3.16-3.11s1.414-3.11 3.16-3.11c1.743 0 3.161 1.392 3.161 3.11zM177.683 60.945c0 1.718-1.414 3.11-3.16 3.11-1.746 0-3.16-1.392-3.16-3.11s1.414-3.11 3.16-3.11c1.746 0 3.16 1.392 3.16 3.11zM158.092 60.945c0 1.718-1.414 3.11-3.161 3.11-1.746 0-3.16-1.392-3.16-3.11s1.414-3.11 3.16-3.11c1.747 0 3.161 1.392 3.161 3.11zM138.5 60.945c0 1.718-1.414 3.11-3.16 3.11-1.747 0-3.161-1.392-3.161-3.11s1.414-3.11 3.161-3.11c1.746 0 3.16 1.392 3.16 3.11zM118.909 60.945c0 1.718-1.414 3.11-3.161 3.11-1.746 0-3.16-1.392-3.16-3.11s1.414-3.11 3.16-3.11c1.747 0 3.161 1.392 3.161 3.11zM334.408 41.667c0 1.718-1.413 3.11-3.16 3.11-1.746 0-3.16-1.392-3.16-3.11 0-1.719 1.414-3.11 3.16-3.11 1.747 0 3.16 1.391 3.16 3.11zM314.817 41.667c0 1.718-1.414 3.11-3.16 3.11-1.747 0-3.161-1.392-3.161-3.11 0-1.719 1.414-3.11 3.161-3.11 1.746 0 3.16 1.391 3.16 3.11zM295.229 41.667c0 1.718-1.414 3.11-3.16 3.11-1.747 0-3.161-1.392-3.161-3.11 0-1.719 1.414-3.11 3.161-3.11 1.746 0 3.16 1.391 3.16 3.11zM275.637 41.667c0 1.718-1.413 3.11-3.16 3.11-1.746 0-3.16-1.392-3.16-3.11 0-1.719 1.414-3.11 3.16-3.11 1.747 0 3.16 1.391 3.16 3.11zM177.683 41.667c0 1.718-1.414 3.11-3.16 3.11-1.746 0-3.16-1.392-3.16-3.11 0-1.719 1.414-3.11 3.16-3.11 1.746 0 3.16 1.391 3.16 3.11zM158.092 41.667c0 1.718-1.414 3.11-3.161 3.11-1.746 0-3.16-1.392-3.16-3.11 0-1.719 1.414-3.11 3.16-3.11 1.747 0 3.161 1.391 3.161 3.11zM138.5 41.666c0 1.719-1.414 3.11-3.16 3.11-1.747 0-3.161-1.391-3.161-3.11 0-1.718 1.414-3.11 3.161-3.11 1.746 0 3.16 1.392 3.16 3.11zM118.909 41.666c0 1.719-1.414 3.11-3.161 3.11-1.746 0-3.16-1.391-3.16-3.11 0-1.718 1.414-3.11 3.16-3.11 1.747 0 3.161 1.392 3.161 3.11zM334.408 22.388c0 1.719-1.413 3.11-3.16 3.11-1.746 0-3.16-1.391-3.16-3.11 0-1.718 1.414-3.11 3.16-3.11 1.747 0 3.16 1.392 3.16 3.11zM354.321 22.388c0 1.719-1.414 3.11-3.161 3.11-1.746 0-3.16-1.391-3.16-3.11 0-1.718 1.414-3.11 3.16-3.11 1.747 0 3.161 1.392 3.161 3.11zM314.817 22.388c0 1.719-1.414 3.11-3.16 3.11-1.747 0-3.161-1.391-3.161-3.11 0-1.718 1.414-3.11 3.161-3.11 1.746 0 3.16 1.392 3.16 3.11zM295.229 22.388c0 1.719-1.414 3.11-3.16 3.11-1.747 0-3.161-1.391-3.161-3.11 0-1.718 1.414-3.11 3.161-3.11 1.746 0 3.16 1.392 3.16 3.11zM158.092 22.388c0 1.719-1.414 3.11-3.16 3.11-1.747 0-3.161-1.391-3.161-3.11 0-1.718 1.414-3.11 3.161-3.11 1.746 0 3.16 1.392 3.16 3.11zM138.5 22.388c0 1.719-1.414 3.11-3.16 3.11-1.747 0-3.161-1.391-3.161-3.11 0-1.718 1.414-3.11 3.161-3.11 1.746 0 3.16 1.392 3.16 3.11zM118.909 22.388c0 1.719-1.414 3.11-3.161 3.11-1.746 0-3.16-1.391-3.16-3.11 0-1.718 1.414-3.11 3.16-3.11 1.747 0 3.161 1.392 3.161 3.11zM99.32 22.388c0 1.719-1.413 3.11-3.16 3.11-1.746 0-3.16-1.391-3.16-3.11 0-1.718 1.414-3.11 3.16-3.11 1.747 0 3.16 1.392 3.16 3.11zM354 3.11c0 1.718-1.414 3.11-3.16 3.11-1.747 0-3.161-1.392-3.161-3.11 0-1.719 1.414-3.11 3.161-3.11 1.746 0 3.16 1.395 3.16 3.11zM334.408 3.11c0 1.718-1.413 3.11-3.16 3.11-1.746 0-3.16-1.392-3.16-3.11 0-1.719 1.414-3.11 3.16-3.11 1.747 0 3.16 1.395 3.16 3.11zM314.817 3.11c0 1.718-1.414 3.11-3.16 3.11-1.747 0-3.161-1.392-3.161-3.11 0-1.719 1.414-3.11 3.161-3.11 1.746 0 3.16 1.395 3.16 3.11zM295.229 3.11c0 1.718-1.414 3.11-3.16 3.11-1.747 0-3.161-1.392-3.161-3.11 0-1.719 1.414-3.11 3.161-3.11 1.746 0 3.16 1.395 3.16 3.11zM158.092 3.11c0 1.718-1.414 3.11-3.16 3.11-1.747 0-3.161-1.392-3.161-3.11 0-1.719 1.414-3.11 3.161-3.11 1.746 0 3.16 1.395 3.16 3.11zM138.5 3.11c0 1.718-1.414 3.11-3.16 3.11-1.747 0-3.161-1.392-3.161-3.11 0-1.719 1.414-3.11 3.161-3.11 1.746 0 3.16 1.395 3.16 3.11zM118.909 3.11c0 1.718-1.414 3.11-3.161 3.11-1.746 0-3.16-1.392-3.16-3.11 0-1.719 1.414-3.11 3.16-3.11 1.747 0 3.161 1.395 3.161 3.11zM99.32 3.11c0 1.718-1.413 3.11-3.16 3.11-1.746 0-3.16-1.392-3.16-3.11C93 1.39 94.414 0 96.16 0c1.743 0 3.16 1.395 3.16 3.11z" fill="#E9EAF9"></path><path fill-rule="evenodd" clip-rule="evenodd" d="M126 200.523l10.242 5.688L126 211.897v-11.374zM140.344 200.523l10.242 5.688-10.242 5.686v-11.374zM154.33 200.523l10.241 5.688-10.241 5.686v-11.374zM168.428 200.523l10.242 5.688-10.242 5.686v-11.374zM182.773 200.523l10.241 5.688-10.241 5.686v-11.374zM196.758 200.523L207 206.211l-10.242 5.686v-11.374z" fill="#E9EAF9"></path></svg>