<svg width="290" height="231" fill="none" xmlns="http://www.w3.org/2000/svg"><path fill-rule="evenodd" clip-rule="evenodd" d="M3.349 52.922c1.574 0 2.849 1.26 2.849 2.816 0 1.556-1.278 2.816-2.849 2.816-1.574 0-2.849-1.26-2.849-2.816 0-1.553 1.275-2.816 2.849-2.816zM21.01 52.922c1.571 0 2.849 1.26 2.849 2.816 0 1.556-1.278 2.816-2.849 2.816-1.574 0-2.849-1.26-2.849-2.816 0-1.553 1.275-2.816 2.85-2.816zM38.668 52.922c1.574 0 2.849 1.26 2.849 2.816 0 1.556-1.275 2.816-2.849 2.816-1.574 0-2.849-1.26-2.849-2.816.003-1.553 1.278-2.816 2.849-2.816zM56.33 52.922c1.573 0 2.848 1.26 2.848 2.816 0 1.556-1.275 2.816-2.849 2.816-1.574 0-2.849-1.26-2.849-2.816 0-1.553 1.278-2.816 2.85-2.816zM73.99 52.922c1.575 0 2.85 1.26 2.85 2.816 0 1.556-1.276 2.816-2.85 2.816s-2.849-1.26-2.849-2.816c0-1.553 1.278-2.816 2.85-2.816zM91.651 52.922c1.575 0 2.85 1.26 2.85 2.816 0 1.556-1.276 2.816-2.85 2.816s-2.849-1.26-2.849-2.816c0-1.553 1.275-2.816 2.85-2.816zM3.349 35.453c1.574 0 2.849 1.26 2.849 2.815 0 1.556-1.275 2.816-2.849 2.816-1.574 0-2.849-1.26-2.849-2.816 0-1.556 1.275-2.815 2.849-2.815zM21.01 35.453c1.571 0 2.849 1.26 2.849 2.815 0 1.556-1.275 2.816-2.849 2.816-1.574 0-2.849-1.26-2.849-2.816 0-1.556 1.275-2.815 2.85-2.815zM38.668 35.453c1.574 0 2.849 1.26 2.849 2.815 0 1.556-1.275 2.816-2.849 2.816-1.574 0-2.849-1.26-2.849-2.816.003-1.556 1.278-2.815 2.849-2.815zM56.33 35.453c1.573 0 2.848 1.26 2.848 2.815 0 1.556-1.275 2.816-2.849 2.816-1.574 0-2.849-1.26-2.849-2.816 0-1.556 1.278-2.815 2.85-2.815zM73.99 35.453c1.574 0 2.849 1.26 2.849 2.815 0 1.556-1.275 2.816-2.849 2.816-1.574 0-2.849-1.26-2.849-2.816 0-1.556 1.278-2.815 2.85-2.815zM91.651 35.453c1.575 0 2.85 1.26 2.85 2.815 0 1.556-1.276 2.816-2.85 2.816s-2.849-1.26-2.849-2.816c0-1.556 1.275-2.815 2.85-2.815zM3.349 17.997c1.574 0 2.849 1.26 2.849 2.816 0 1.556-1.275 2.816-2.849 2.816-1.574 0-2.849-1.26-2.849-2.816 0-1.556 1.275-2.816 2.849-2.816zM21.01 17.997c1.571 0 2.849 1.26 2.849 2.816 0 1.556-1.275 2.816-2.849 2.816-1.574 0-2.849-1.26-2.849-2.816 0-1.556 1.275-2.816 2.85-2.816zM38.668 17.997c1.574 0 2.849 1.26 2.849 2.816 0 1.556-1.275 2.816-2.849 2.816-1.574 0-2.849-1.26-2.849-2.816.003-1.556 1.278-2.816 2.849-2.816zM56.33 17.997c1.573 0 2.848 1.26 2.848 2.816 0 1.556-1.275 2.816-2.849 2.816-1.574 0-2.849-1.26-2.849-2.816 0-1.556 1.278-2.816 2.85-2.816zM73.99 17.997c1.574 0 2.849 1.26 2.849 2.816 0 1.556-1.275 2.816-2.849 2.816-1.574 0-2.849-1.26-2.849-2.816 0-1.556 1.278-2.816 2.85-2.816zM91.651 17.997c1.575 0 2.85 1.26 2.85 2.816 0 1.556-1.276 2.816-2.85 2.816s-2.849-1.26-2.849-2.816c0-1.556 1.275-2.816 2.85-2.816zM3.349.542c1.574 0 2.849 1.26 2.849 2.816 0 1.556-1.275 2.815-2.849 2.815C1.775 6.173.5 4.913.5 3.358.5 1.802 1.775.542 3.35.542zM21.01.542c1.571 0 2.849 1.26 2.849 2.816 0 1.556-1.275 2.815-2.849 2.815-1.574 0-2.849-1.26-2.849-2.815 0-1.556 1.275-2.816 2.85-2.816zM38.668.542c1.574 0 2.849 1.26 2.849 2.816 0 1.555-1.275 2.815-2.849 2.815-1.574 0-2.849-1.26-2.849-2.815.003-1.556 1.278-2.816 2.849-2.816zM56.33.542c1.573 0 2.848 1.26 2.848 2.816 0 1.556-1.275 2.815-2.849 2.815-1.574 0-2.849-1.26-2.849-2.815 0-1.556 1.278-2.816 2.85-2.816zM73.99.542c1.574 0 2.849 1.26 2.849 2.816 0 1.555-1.275 2.815-2.849 2.815-1.574 0-2.849-1.26-2.849-2.815 0-1.556 1.278-2.816 2.85-2.816zM91.651.542c1.575 0 2.85 1.26 2.85 2.816 0 1.556-1.276 2.815-2.85 2.815s-2.849-1.26-2.849-2.815c0-1.556 1.275-2.816 2.85-2.816z" fill="#E9EAF9"></path><path d="M164.783 127.509c0-1.496 1.224-2.708 2.736-2.708 1.513 0 2.737 1.212 2.737 2.708 0 1.497-1.224 2.709-2.737 2.709-1.512 0-2.736-1.212-2.736-2.709zM148 127.509c0-1.496 1.224-2.708 2.736-2.708 1.513 0 2.737 1.212 2.737 2.708 0 1.497-1.224 2.709-2.737 2.709-1.512 0-2.736-1.212-2.736-2.709zM181.744 127.509c0-1.496 1.224-2.708 2.737-2.708 1.512 0 2.736 1.212 2.736 2.708 0 1.497-1.224 2.709-2.736 2.709-1.513 0-2.737-1.212-2.737-2.709zM199 127.509c0-1.496 1.224-2.708 2.736-2.708 1.513 0 2.737 1.212 2.737 2.708 0 1.497-1.224 2.709-2.737 2.709-1.512 0-2.736-1.212-2.736-2.709zM113.89 144.3c0-1.496 1.224-2.708 2.736-2.708 1.513 0 2.737 1.212 2.737 2.708 0 1.497-1.224 2.709-2.737 2.709-1.512-.003-2.736-1.215-2.736-2.709zM130.854 144.3c0-1.496 1.225-2.708 2.737-2.708s2.736 1.212 2.736 2.708c0 1.497-1.224 2.709-2.736 2.709-1.512 0-2.737-1.215-2.737-2.709zM147.819 144.3c0-1.496 1.224-2.708 2.736-2.708 1.512 0 2.737 1.212 2.737 2.708 0 1.497-1.225 2.709-2.737 2.709-1.512-.003-2.736-1.215-2.736-2.709zM164.783 144.3c0-1.496 1.224-2.708 2.736-2.708 1.513 0 2.737 1.212 2.737 2.708 0 1.497-1.224 2.709-2.737 2.709-1.512-.003-2.736-1.215-2.736-2.709zM181.744 144.3c0-1.496 1.224-2.708 2.737-2.708 1.512 0 2.736 1.212 2.736 2.708 0 1.497-1.224 2.709-2.736 2.709-1.513 0-2.737-1.215-2.737-2.709zM198.708 144.3c0-1.496 1.225-2.708 2.737-2.708s2.736 1.212 2.736 2.708c0 1.497-1.224 2.709-2.736 2.709-1.509-.003-2.737-1.215-2.737-2.709zM215.673 144.3c0-1.496 1.224-2.708 2.736-2.708 1.512 0 2.737 1.212 2.737 2.708 0 1.497-1.225 2.709-2.737 2.709-1.512-.003-2.736-1.215-2.736-2.709zM232.637 144.3c0-1.496 1.224-2.708 2.737-2.708 1.512 0 2.736 1.212 2.736 2.708 0 1.497-1.224 2.709-2.736 2.709-1.513-.003-2.737-1.215-2.737-2.709zM96.929 161.088c0-1.497 1.224-2.708 2.736-2.708 1.512 0 2.737 1.211 2.737 2.708s-1.225 2.709-2.737 2.709-2.736-1.212-2.736-2.709zM113.89 161.088c0-1.497 1.224-2.708 2.736-2.708 1.513 0 2.737 1.211 2.737 2.708s-1.224 2.709-2.737 2.709c-1.512 0-2.736-1.212-2.736-2.709zM130.854 161.088c0-1.497 1.225-2.708 2.737-2.708s2.736 1.211 2.736 2.708-1.224 2.709-2.736 2.709c-1.512 0-2.737-1.212-2.737-2.709zM147.819 161.088c0-1.497 1.224-2.708 2.736-2.708 1.512 0 2.737 1.211 2.737 2.708s-1.225 2.709-2.737 2.709-2.736-1.212-2.736-2.709zM164.783 161.088c0-1.497 1.224-2.708 2.736-2.708 1.513 0 2.737 1.211 2.737 2.708s-1.224 2.709-2.737 2.709c-1.512 0-2.736-1.212-2.736-2.709zM181.744 161.088c0-1.497 1.224-2.708 2.737-2.708 1.512 0 2.736 1.211 2.736 2.708s-1.224 2.709-2.736 2.709c-1.513 0-2.737-1.212-2.737-2.709zM198.708 161.088c0-1.497 1.225-2.708 2.737-2.708s2.736 1.211 2.736 2.708-1.224 2.709-2.736 2.709c-1.509 0-2.737-1.212-2.737-2.709zM215.673 161.088c0-1.497 1.224-2.708 2.736-2.708 1.512 0 2.737 1.211 2.737 2.708s-1.225 2.709-2.737 2.709-2.736-1.212-2.736-2.709zM232.637 161.088c0-1.497 1.224-2.708 2.737-2.708 1.512 0 2.736 1.211 2.736 2.708s-1.224 2.709-2.736 2.709c-1.513 0-2.737-1.212-2.737-2.709zM249.601 161.088c0-1.497 1.225-2.708 2.737-2.708s2.736 1.211 2.736 2.708-1.224 2.709-2.736 2.709c-1.512 0-2.737-1.212-2.737-2.709zM79.964 177.879c0-1.497 1.225-2.708 2.737-2.708s2.736 1.211 2.736 2.708-1.224 2.709-2.736 2.709c-1.512 0-2.737-1.212-2.737-2.709zM96.929 177.879c0-1.497 1.224-2.708 2.736-2.708 1.512 0 2.737 1.211 2.737 2.708s-1.225 2.709-2.737 2.709-2.736-1.212-2.736-2.709zM113.89 177.879c0-1.497 1.224-2.708 2.736-2.708 1.513 0 2.737 1.211 2.737 2.708s-1.224 2.709-2.737 2.709c-1.512 0-2.736-1.212-2.736-2.709zM130.854 177.879c0-1.497 1.225-2.708 2.737-2.708s2.736 1.211 2.736 2.708-1.224 2.709-2.736 2.709c-1.512 0-2.737-1.212-2.737-2.709zM147.819 177.879c0-1.497 1.224-2.708 2.736-2.708 1.512 0 2.737 1.211 2.737 2.708s-1.225 2.709-2.737 2.709-2.736-1.212-2.736-2.709zM164.783 177.879c0-1.497 1.224-2.708 2.736-2.708 1.513 0 2.737 1.211 2.737 2.708s-1.224 2.709-2.737 2.709c-1.512 0-2.736-1.212-2.736-2.709zM181.744 177.879c0-1.497 1.224-2.708 2.737-2.708 1.512 0 2.736 1.211 2.736 2.708s-1.224 2.709-2.736 2.709c-1.513 0-2.737-1.212-2.737-2.709zM198.708 177.879c0-1.497 1.225-2.708 2.737-2.708s2.736 1.211 2.736 2.708-1.224 2.709-2.736 2.709c-1.509 0-2.737-1.212-2.737-2.709zM215.673 177.879c0-1.497 1.224-2.708 2.736-2.708 1.512 0 2.737 1.211 2.737 2.708s-1.225 2.709-2.737 2.709-2.736-1.212-2.736-2.709zM232.637 177.879c0-1.497 1.224-2.708 2.737-2.708 1.512 0 2.736 1.211 2.736 2.708s-1.224 2.709-2.736 2.709c-1.513 0-2.737-1.212-2.737-2.709zM249.601 177.879c0-1.497 1.225-2.708 2.737-2.708s2.736 1.211 2.736 2.708-1.224 2.709-2.736 2.709c-1.512 0-2.737-1.212-2.737-2.709zM266.566 177.879c0-1.497 1.224-2.708 2.736-2.708 1.512 0 2.737 1.211 2.737 2.708s-1.225 2.709-2.737 2.709-2.736-1.212-2.736-2.709zM79.964 194.67c0-1.497 1.225-2.709 2.737-2.709s2.736 1.212 2.736 2.709-1.224 2.708-2.736 2.708c-1.512 0-2.737-1.211-2.737-2.708zM96.929 194.67c0-1.497 1.224-2.709 2.736-2.709 1.512 0 2.737 1.212 2.737 2.709s-1.225 2.708-2.737 2.708-2.736-1.211-2.736-2.708zM113.89 194.67c0-1.497 1.224-2.709 2.736-2.709 1.513 0 2.737 1.212 2.737 2.709s-1.224 2.708-2.737 2.708c-1.512 0-2.736-1.211-2.736-2.708zM130.854 194.67c0-1.497 1.225-2.709 2.737-2.709s2.736 1.212 2.736 2.709-1.224 2.708-2.736 2.708c-1.512 0-2.737-1.211-2.737-2.708zM215.673 194.67c0-1.497 1.224-2.709 2.736-2.709 1.512 0 2.737 1.212 2.737 2.709s-1.225 2.708-2.737 2.708-2.736-1.211-2.736-2.708zM232.637 194.67c0-1.497 1.224-2.709 2.737-2.709 1.512 0 2.736 1.212 2.736 2.709s-1.224 2.708-2.736 2.708c-1.513 0-2.737-1.211-2.737-2.708zM249.601 194.67c0-1.497 1.225-2.709 2.737-2.709s2.736 1.212 2.736 2.709-1.224 2.708-2.736 2.708c-1.512 0-2.737-1.211-2.737-2.708zM266.566 194.67c0-1.497 1.224-2.709 2.736-2.709 1.512 0 2.737 1.212 2.737 2.709s-1.225 2.708-2.737 2.708-2.736-1.211-2.736-2.708zM79.964 211.461c0-1.497 1.225-2.709 2.737-2.709s2.736 1.212 2.736 2.709c0 1.496-1.224 2.708-2.736 2.708-1.512 0-2.737-1.212-2.737-2.708zM63 211.461c0-1.497 1.224-2.709 2.737-2.709 1.512 0 2.736 1.212 2.736 2.709 0 1.496-1.224 2.708-2.736 2.708-1.513 0-2.737-1.212-2.737-2.708zM96.929 211.461c0-1.497 1.224-2.709 2.736-2.709 1.512 0 2.737 1.212 2.737 2.709 0 1.496-1.225 2.708-2.737 2.708s-2.736-1.212-2.736-2.708zM113.89 211.461c0-1.497 1.224-2.709 2.736-2.709 1.513 0 2.737 1.212 2.737 2.709 0 1.496-1.224 2.708-2.737 2.708-1.512 0-2.736-1.212-2.736-2.708zM232.637 211.461c0-1.497 1.224-2.709 2.737-2.709 1.512 0 2.736 1.212 2.736 2.709 0 1.496-1.224 2.708-2.736 2.708-1.513 0-2.737-1.212-2.737-2.708zM249.601 211.461c0-1.497 1.225-2.709 2.737-2.709s2.736 1.212 2.736 2.709c0 1.496-1.224 2.708-2.736 2.708-1.512 0-2.737-1.212-2.737-2.708zM266.566 211.461c0-1.497 1.224-2.709 2.736-2.709 1.512 0 2.737 1.212 2.737 2.709 0 1.496-1.225 2.708-2.737 2.708s-2.736-1.212-2.736-2.708zM284 211.461c0-1.497 1.224-2.709 2.736-2.709 1.513 0 2.737 1.212 2.737 2.709 0 1.496-1.224 2.708-2.737 2.708-1.512 0-2.736-1.212-2.736-2.708zM63 228.252c0-1.497 1.224-2.709 2.737-2.709 1.512 0 2.736 1.212 2.736 2.709 0 1.496-1.224 2.708-2.736 2.708-1.513 0-2.737-1.215-2.737-2.708zM79.964 228.252c0-1.497 1.225-2.709 2.737-2.709s2.736 1.212 2.736 2.709c0 1.496-1.224 2.708-2.736 2.708-1.512 0-2.737-1.215-2.737-2.708zM96.929 228.252c0-1.497 1.224-2.709 2.736-2.709 1.512 0 2.737 1.212 2.737 2.709 0 1.496-1.225 2.708-2.737 2.708s-2.736-1.215-2.736-2.708zM113.89 228.252c0-1.497 1.224-2.709 2.736-2.709 1.513 0 2.737 1.212 2.737 2.709 0 1.496-1.224 2.708-2.737 2.708-1.512 0-2.736-1.215-2.736-2.708zM232.637 228.252c0-1.497 1.224-2.709 2.737-2.709 1.512 0 2.736 1.212 2.736 2.709 0 1.496-1.224 2.708-2.736 2.708-1.513 0-2.737-1.215-2.737-2.708zM249.601 228.252c0-1.497 1.225-2.709 2.737-2.709s2.736 1.212 2.736 2.709c0 1.496-1.224 2.708-2.736 2.708-1.512 0-2.737-1.215-2.737-2.708zM266.566 228.252c0-1.497 1.224-2.709 2.736-2.709 1.512 0 2.737 1.212 2.737 2.709 0 1.496-1.225 2.708-2.737 2.708s-2.736-1.215-2.736-2.708zM283.527 228.252c0-1.497 1.224-2.709 2.737-2.709 1.512 0 2.736 1.212 2.736 2.709 0 1.496-1.224 2.708-2.736 2.708-1.51 0-2.737-1.215-2.737-2.708z" fill="#E9EAF9"></path><path fill-rule="evenodd" clip-rule="evenodd" d="M231 64.84l-10.242 5.688L231 76.214V64.84zM216.656 64.84l-10.242 5.688 10.242 5.686V64.84zM202.67 64.84l-10.241 5.688 10.241 5.686V64.84zM188.572 64.84l-10.242 5.688 10.242 5.686V64.84zM174.227 64.84l-10.241 5.688 10.241 5.686V64.84zM160.242 64.84L150 70.528l10.242 5.686V64.84z" fill="#E9EAF9"></path></svg>