<svg width="1023" height="783" viewBox="0 0 1023 783" fill="none" xmlns="http://www.w3.org/2000/svg">
<path d="M844.7 248.7C913.018 248.7 968.4 193.318 968.4 125C968.4 56.6824 913.018 1.30005 844.7 1.30005C776.382 1.30005 721 56.6824 721 125C721 193.318 776.382 248.7 844.7 248.7Z" stroke="#82ADDE" stroke-miterlimit="10" stroke-dasharray="12.14 12.14"/>
<path d="M329 138.4C305.1 148.8 281.4 161.6 264.7 181.6C248 201.6 239.6 230.3 249.7 254.4C263.1 286.5 305.5 305.2 305.7 340C305.8 364.9 282.8 383.9 259.6 393C236.4 402.1 210.7 405.3 189.6 418.6C157.7 438.6 142.8 477.3 136.7 514.4C130.4 552.9 132.9 596.8 160.2 624.8C194 659.3 250 655.4 298 648C362 638.1 425.7 626.5 489.5 614.9C629.2 589.4 768.9 564 908.5 538.5C923.5 535.8 939.1 532.8 951.2 523.6C975.4 505.4 977.4 467.9 963.4 441.2C949.4 414.4 923.4 396.2 897.6 380.5C871.8 364.8 844.5 349.9 825.2 326.6C805.9 303.4 796.3 268.9 810.9 242.5C823.3 220.1 849.9 208.1 861.5 185.3C876.8 155.2 859.2 116.8 831.4 97.6001C803.6 78.4001 455.1 83.2001 329 138.4Z" fill="#ECEDF9"/>
<path d="M558.2 586.4H315.7V774.8H558.2V586.4Z" fill="#5D5CE4"/>
<path d="M205 774.9H668.9C691.5 774.9 709.8 793.2 709.8 815.8H164.1C164.1 793.2 182.4 774.9 205 774.9Z" fill="#D3D3D3"/>
<path d="M758 665H115.9C105 665 96.2 656.2 96.2 645.3V270.4C96.2 259.5 105 250.7 115.9 250.7H758C768.9 250.7 777.7 259.5 777.7 270.4V645.2C777.7 656.1 768.9 665 758 665Z" fill="#D3D3D3"/>
<path d="M745.5 640.9H128.4C120 640.9 113.1 634.1 113.1 625.6V280.8C113.1 272.4 119.9 265.5 128.4 265.5H745.6C754 265.5 760.9 272.3 760.9 280.8V625.6C760.8 634.1 754 640.9 745.5 640.9Z" fill="white"/>
<path d="M867.9 520C867.9 520 805.5 780.3 795.5 791.7C809.6 795.2 865.8 806.7 865.3 798.6C865.3 798.6 875.1 749.4 868.4 666.7C875.5 614 925.2 569 892.2 519C884.5 514.4 867.9 520 867.9 520Z" fill="#072C3D"/>
<path d="M867.9 520L873 541.8C873 541.8 882.5 794.7 875.9 808.4C890.4 808 947.6 804.1 945 796.4C945 796.4 941.2 746.4 912.8 668.5C905.6 615.8 946.2 558.4 901 519.1C870.4 508.4 867.9 520 867.9 520Z" fill="#0A3851"/>
<path d="M870.5 442C851.4 452.5 829.7 542.7 811 459.2C804.4 459.6 800.9 459.5 800.9 459.5C800.9 459.5 805.2 553.1 874.5 474.7C882.3 432 870.5 442 870.5 442Z" fill="#4443BC"/>
<path d="M876.2 439.9L870.5 441.9C870.5 441.9 853.7 472.9 852.1 477.7C854.1 485.2 867.3 505.7 868 520.1C877.1 523.1 891.5 523.8 901.1 519.2C902.1 516.3 908.2 477.2 911.6 455.7C912.7 448.4 907.2 441.7 899.8 441.5L893 441.3L876.2 439.9Z" fill="#5D5CE4"/>
<path d="M864.6 410.8C858.6 405.8 853.5 391.7 861.6 387.6C868.8 384 894.3 378.8 899.8 397.7C901.2 402.4 900.8 407.4 899.1 412C894.5 424.7 884.7 433 884.7 433L864.6 410.8Z" fill="#0B4870"/>
<path d="M879.6 426.4C879.4 428.4 878.7 438.1 876.2 439.9C879.4 445.9 880.3 451.7 880.3 451.7C880.3 451.7 890.2 442.6 892.8 441.2C891.3 435.7 886.1 422.1 886.1 422.1L879.6 426.4Z" fill="#FCD2B1"/>
<path d="M864.1 396.1C862.6 404.7 861.4 421.9 866.5 429.9C868.6 433.2 872.4 435 876.3 434.7C888.5 433.7 889.8 425.6 891.5 417.7C893.4 409.1 891.7 378.1 864.1 396.1Z" fill="#FFE3CA"/>
<path d="M860 395C864.6 402.9 871.8 408.2 879.3 409.1C882.5 409.5 885.8 409.2 889.1 409.9C892.3 410.6 895.6 412.6 897.2 416.3C897.2 416.4 887.5 370.6 860 395Z" fill="#0B4870"/>
<path d="M895.874 418.694C896.599 415.973 895.803 413.397 894.096 412.942C892.388 412.487 890.416 414.324 889.69 417.045C888.965 419.767 889.761 422.342 891.468 422.797C893.176 423.253 895.148 421.416 895.874 418.694Z" fill="#FFE3CA"/>
<path d="M885.3 390C888.7 385.2 892.2 380.3 896.9 376.9C901.7 373.5 908 371.7 913.5 373.7C916.9 375 919.7 377.6 922.9 379.4C930.7 383.6 940.3 382.3 948.6 379.3C956.9 376.3 964.7 371.8 973.2 369.6C981.7 367.4 991.8 368.1 998.1 374.3C1007 383.1 1003.4 399.6 993.3 406.9C983.1 414.2 969.1 413.8 957.3 409.5C943.7 404.6 930.2 395 916.2 398.3C911.9 399.3 908 401.5 904 403.3C900 405.1 895.6 406.5 891.2 405.9C886.8 405.3 882.5 402.2 881.9 397.8C881.3 393.4 885.7 388.7 889.9 390.1" fill="#0B4870"/>
<path d="M889 428.2C889 431.8 890.4 434.7 892 434.7C893.7 434.7 895 431.8 895 428.2C895 424.6 892 421.7 892 421.7C892 421.7 889 424.6 889 428.2Z" fill="#FFBE55"/>
<path d="M1036.6 619.1C1036.4 621.4 1035 623.3 1032.8 624.1C1030.7 624.9 1028.3 624.3 1026.7 622.7L1002.2 598.2C1000.5 596.5 998 596 995.8 597L973.1 606.7C972.3 607.1 971.6 607.5 971.1 608.1C970.7 608.6 970.4 609.1 970.1 609.7L960.2 632.7C959.2 634.9 959.7 637.4 961.4 639.1L986 663.6C987.6 665.2 988.1 667.6 987.3 669.7C986.5 671.8 984.6 673.3 982.3 673.4C963.8 674.5 946 666.6 934.3 652.3C922.6 638 918.5 618.9 923.3 601C924.3 597 923.2 592.8 920.4 589.8L864.3 533.7L828.6 498L772.6 442C769.6 439.1 765.4 438 761.4 439.1C743.5 443.9 724.4 439.8 710.1 428.1C695.8 416.4 687.9 398.6 689 380.1C689.2 377.8 690.6 375.9 692.7 375.1C694.8 374.3 697.2 374.8 698.8 376.4L723.3 401C725 402.7 727.5 403.2 729.7 402.2L752.7 392.3C753.3 392 753.8 391.7 754.3 391.3C754.9 390.7 755.4 390 755.7 389.3L765.4 366.6C766.4 364.4 765.9 361.9 764.2 360.2L739.7 335.7C738.1 334.1 737.6 331.7 738.3 329.6C739 327.5 741 326 743.3 325.8C761.8 324.7 779.7 332.6 791.3 346.9C802.9 361.2 807.1 380.4 802.2 398.2C801.2 402.2 802.3 406.4 805.1 409.4L870.5 474.8L952.9 557.2C955.9 560.1 960.1 561.2 964.1 560.1C982 555.3 1001.1 559.4 1015.4 571C1029.8 582.8 1037.7 600.7 1036.6 619.1Z" fill="#07C1B7"/>
<path d="M982.3 673.4C963.8 674.5 946 666.6 934.3 652.3C922.6 638 918.5 618.9 923.3 601C924.3 597 923.2 592.8 920.4 589.8L864.3 533.7L828.6 498L772.6 442C769.6 439.1 765.4 438 761.4 439.1C743.5 443.9 724.4 439.8 710.1 428.1C695.8 416.4 687.9 398.6 689 380.1C689.2 377.8 690.6 375.9 692.7 375.1C694.8 374.3 697.2 374.8 698.8 376.4L723.3 401C725 402.7 727.5 403.2 729.7 402.2L752.7 392.3C753.3 392 753.8 391.7 754.3 391.3L971 608.1C970.6 608.6 970.3 609.1 970 609.7L960.1 632.7C959.1 634.9 959.6 637.4 961.3 639.1L985.9 663.6C987.5 665.2 988 667.6 987.2 669.7C986.5 671.8 984.6 673.2 982.3 673.4Z" fill="#00B4AA"/>
<path d="M800.9 462.9C800.9 462.9 796.6 470.5 797.2 472C797.8 473.5 803.9 478.6 803.9 478.6L807.4 473.5L800.9 462.9Z" fill="#FCD2B1"/>
<path d="M904 531.9C904 531.9 898.5 531.8 898.1 531.1C897.7 530.4 893.8 525 889.4 524.6C890.2 525.8 891.9 530.1 893.2 530.5C888.4 530.5 878.5 531.8 877 532.7C878.1 536.1 882.8 541.1 887.2 542.4C893.4 542.1 898.6 538.6 898.6 538.6C898.6 538.6 904.4 538.7 904.2 538.4C904 538.1 904 531.9 904 531.9Z" fill="#FCD2B1"/>
<path d="M902.4 441.8C940.2 450 970.3 545.8 900 543.5C899.5 540.3 901.6 530.4 901.6 530.4C901.6 530.4 952.2 536.7 909.2 470.2C898 461.4 902.4 441.8 902.4 441.8Z" fill="#5D5CE4"/>
<path d="M521.9 468.6C520.5 467.2 518.9 466.5 517 466.5H492.6V434.5L511.4 415.7C512.8 414.3 513.5 412.7 513.5 410.8C513.5 408.9 512.8 407.3 511.4 405.9C510 404.5 508.4 403.8 506.5 403.8C504.6 403.8 503 404.5 501.6 405.9L482.8 424.7H391L372.2 406C370.8 404.6 369.2 403.9 367.3 403.9C365.4 403.9 363.8 404.6 362.4 406C361 407.4 360.3 409 360.3 410.9C360.3 412.8 361 414.4 362.4 415.8L381.2 434.6V466.6H356.8C354.9 466.6 353.3 467.3 351.9 468.7C350.5 470.1 349.8 471.7 349.8 473.6C349.8 475.5 350.5 477.1 351.9 478.5C353.3 479.9 354.9 480.6 356.8 480.6H381.2C381.2 492.2 383.3 502.1 387.5 510.4L365.5 535.1C364.3 536.6 363.7 538.2 363.8 540.2C363.9 542.1 364.7 543.7 366 545C367.4 546.2 368.9 546.7 370.7 546.7C372.7 546.7 374.5 545.9 375.9 544.4L395.8 521.9L397.4 523.4C398.4 524.3 400 525.5 402.1 526.9C404.2 528.3 406.6 529.7 409.3 531.1C411.9 532.5 415.1 533.7 418.8 534.7C422.5 535.7 426.1 536.2 429.8 536.2V438.7H443.7V536.2C447.2 536.2 450.7 535.7 454.3 534.8C457.9 533.9 460.8 532.8 463.2 531.6C465.6 530.4 468 529.1 470.3 527.6C472.6 526.1 474.1 525.1 474.9 524.5C475.6 523.9 476.2 523.4 476.5 523.1L498 544.5C499.3 545.9 500.9 546.6 502.9 546.6C504.9 546.6 506.5 545.9 507.8 544.5C509.2 543.1 509.9 541.5 509.9 539.6C509.9 537.7 509.2 536.1 507.8 534.7L485.4 512C490.3 503.4 492.7 492.9 492.7 480.4H517C518.9 480.4 520.5 479.7 521.9 478.3C523.3 476.9 524 475.3 524 473.4C524 471.6 523.3 470 521.9 468.6Z" fill="#5D5CE4"/>
<path d="M461.6 386.2C454.8 379.4 446.6 376 437 376C427.4 376 419.1 379.4 412.4 386.2C405.6 393 402.2 401.2 402.2 410.8H471.8C471.8 401.2 468.4 393 461.6 386.2Z" fill="#5D5CE4"/>
<path d="M131.7 827.8C154.9 827.8 164.6 809.3 168.5 789.7C172.8 767.6 169.7 744 169.7 744H93.7999C93.7999 744 93.6999 744.9 93.4999 746.5C91.9999 760.4 87.3999 827.8 131.7 827.8Z" fill="#B6E7FF"/>
<path d="M93.7 743.9C93.7 745.6 110.7 746.9 131.6 746.9C152.6 746.9 169.5 745.6 169.5 743.9C169.5 742.2 152.5 740.9 131.6 740.9C110.7 740.9 93.7 742.3 93.7 743.9Z" fill="#85DDFF"/>
<path d="M28.8999 533.6C28.8999 533.6 68.8999 594.5 92.8999 631.6C116.9 668.7 123.2 676.5 126.1 688.5C129 700.5 131.5 744.8 131.5 744.8H133.3C133.3 744.8 132.7 707.2 130.5 694.5C128.4 682.3 130.6 677.9 132.4 665C134.1 652.1 136.4 631.6 123.4 617.3C110.4 603 113.8 589 109.3 579.6C104.7 570.2 69.2999 558.7 64.6999 549C60.0999 539.3 39.9999 533.3 28.8999 533.6Z" fill="#5D5CE4"/>
<path d="M28.8999 533.6C28.8999 533.6 41.4999 547.9 50.0999 552.8C58.6999 557.7 62.6999 553.4 69.2999 565.1C75.8999 576.8 76.0999 582 82.0999 588C88.0999 594 95.2999 594.3 95.7999 607.4C96.3999 620.5 92.8999 631.7 92.8999 631.7C92.8999 631.7 31.4999 536.7 28.8999 533.6Z" fill="#4443BC"/>
<path d="M128.4 744.8H126.6C126.6 744.8 126.1 732.6 121.2 726.7C118.1 722.9 104.8 718.6 91.6998 713.4C84.4998 710.5 77.2998 707.4 71.8998 704C56.6998 694.3 42.1998 663.2 40.8998 657.6C40.4998 655.7 40.2998 654.5 40.2998 653.7C40.2998 652.2 41.0998 652 42.3998 650.5C42.9998 649.8 44.8998 650 47.0998 650.7C53.6998 652.7 59.1998 657.2 62.5998 663.1C65.7998 668.6 70.8998 675.5 77.0998 677.1C87.7998 680 86.9998 681.8 90.8998 692.7C94.8998 703.6 104.8 705.4 117.4 718.3C130 731.2 128.4 744.8 128.4 744.8Z" fill="#5D5CE4"/>
<path d="M91.6998 713.4C84.4998 710.5 77.2998 707.4 71.8998 704C56.6998 694.3 42.1998 663.2 40.8998 657.6C40.4998 655.7 40.2998 654.5 40.2998 653.7C40.2998 654.1 41.0998 659 48.9998 662.3C57.1998 665.7 58.7998 665.7 59.8998 670.9C60.9998 676.1 61.8998 681.6 66.1998 682.7C70.4998 683.8 73.1998 678.9 76.5998 686.8C79.9998 694.7 81.5998 697.4 84.7998 698.4C87.8998 699.5 90.2998 697.9 90.9998 704C91.3998 707.7 91.5998 711.2 91.6998 713.4Z" fill="#4443BC"/>
<path d="M141.5 744.8H143.6C143.6 744.8 147.8 669.4 153.5 662.4C157.2 657.9 169.4 649.8 184.9 643.6C193.4 640.2 201.9 636.5 208.3 632.5C226.3 621 243.5 584.1 245 577.6C245.5 575.3 245.8 573.9 245.7 573C245.7 571.2 244.8 571 243.3 569.2C242.6 568.3 240.4 568.6 237.7 569.5C229.9 571.9 223.4 577.2 219.3 584.2C215.5 590.7 209.5 598.8 202.2 600.8C189.5 604.2 190.5 606.3 185.8 619.3C181.1 632.2 169.3 634.4 154.4 649.6C139.6 664.7 141.5 744.8 141.5 744.8Z" fill="#5D5CE4"/>
<path d="M184.9 643.7C193.4 640.3 201.9 636.6 208.3 632.6C226.3 621.1 243.5 584.2 245 577.7C245.5 575.4 245.8 574 245.7 573.1C245.6 573.5 244.8 579.4 235.4 583.3C225.7 587.3 223.7 587.3 222.5 593.5C221.2 599.6 220.2 606.2 215.1 607.5C210 608.8 206.8 603 202.8 612.4C198.8 621.7 196.8 624.9 193.1 626.2C189.4 627.5 186.6 625.6 185.8 632.8C185.3 636.9 185 641.1 184.9 643.7Z" fill="#4443BC"/>
<path d="M131.7 827.8C154.9 827.8 164.6 809.3 168.5 789.7C145.8 781.1 117.2 767.3 93.4999 746.5C91.9999 760.4 87.3999 827.8 131.7 827.8Z" fill="#CCE9FF"/>
</svg>
