<svg width="2405" height="826" viewBox="0 0 2405 826" fill="none" xmlns="http://www.w3.org/2000/svg">
<g clip-path="url(#clip0_1_367)">
<path opacity="0.05" d="M347.667 785.345C127.082 502.814 847.047 248.242 1319.01 104.033C1934.47 104.033 2276.26 194.119 2276.26 785.345" fill="#4443BC"/>
<path d="M1300.04 435.963C1336.33 435.963 1365.74 406.546 1365.74 370.259C1365.74 333.972 1336.33 304.556 1300.04 304.556C1263.75 304.556 1234.34 333.972 1234.34 370.259C1234.34 406.546 1263.75 435.963 1300.04 435.963Z" fill="#D3D3D3"/>
<path d="M1374.63 409.829C1412.32 409.829 1442.86 379.279 1442.86 341.594C1442.86 303.908 1412.32 273.358 1374.63 273.358C1336.94 273.358 1306.39 303.908 1306.39 341.594C1306.39 379.279 1336.94 409.829 1374.63 409.829Z" fill="#D3D3D3"/>
<path d="M1424.3 424.101C1451.74 424.101 1473.98 401.861 1473.98 374.427C1473.98 346.994 1451.74 324.754 1424.3 324.754C1396.87 324.754 1374.63 346.994 1374.63 374.427C1374.63 401.861 1396.87 424.101 1424.3 424.101Z" fill="#D3D3D3"/>
<path d="M1420.91 259.197C1448.35 259.197 1470.59 236.957 1470.59 209.523C1470.59 182.089 1448.35 159.85 1420.91 159.85C1393.48 159.85 1371.24 182.089 1371.24 209.523C1371.24 236.957 1393.48 259.197 1420.91 259.197Z" fill="#D3D3D3"/>
<path d="M1343.45 137.236C1362.52 137.236 1377.97 121.779 1377.97 102.712C1377.97 83.6452 1362.52 68.1884 1343.45 68.1884C1324.38 68.1884 1308.93 83.6452 1308.93 102.712C1308.93 121.779 1324.38 137.236 1343.45 137.236Z" fill="#D3D3D3"/>
<path d="M1317.09 155.438C1331.65 155.438 1343.45 143.635 1343.45 129.075C1343.45 114.515 1331.65 102.712 1317.09 102.712C1302.53 102.712 1290.72 114.515 1290.72 129.075C1290.72 143.635 1302.53 155.438 1317.09 155.438Z" fill="#D3D3D3"/>
<path d="M1391.56 53.9225C1403.51 53.9225 1413.19 44.2413 1413.19 32.299C1413.19 20.3567 1403.51 10.6755 1391.56 10.6755C1379.62 10.6755 1369.94 20.3567 1369.94 32.299C1369.94 44.2413 1379.62 53.9225 1391.56 53.9225Z" fill="#D3D3D3"/>
<path d="M1317.37 259.197C1337.3 259.197 1353.45 243.046 1353.45 223.123C1353.45 203.2 1337.3 187.049 1317.37 187.049C1297.45 187.049 1281.3 203.2 1281.3 223.123C1281.3 243.046 1297.45 259.197 1317.37 259.197Z" fill="#D3D3D3"/>
<path d="M1036.76 676.249C978.434 664.181 920.106 652.114 861.772 640.05C860.123 639.58 858.484 639.104 856.842 638.631C853.429 638.149 850.014 637.667 846.604 637.185C843.769 634.129 840.246 633.983 836.495 634.805C834.567 634.448 832.639 634.088 830.708 633.734C829.357 633.275 828.007 632.814 826.659 632.353C822.137 631.594 817.614 630.836 813.095 630.08C805.657 626.227 797.761 624.445 789.383 624.835C787.158 624.472 784.935 624.109 782.713 623.746C778.711 620.432 774.04 620.327 769.22 620.922L767.989 620.295L766.614 620.443C765.317 619.935 764.023 619.426 762.729 618.917C758.197 618.206 753.666 617.498 749.138 616.787C741.656 613.232 733.896 610.932 725.483 611.658C722.189 610.95 718.899 610.242 715.608 609.537C703.416 602.096 714.843 596.279 717.679 591.12C737.773 554.559 733.917 511.799 706.879 479.959C682.477 451.219 639.09 440.045 602.906 453.177C564.47 467.128 539.606 502.505 539.711 543.098C539.764 563.612 539.764 563.612 520.408 559.947L519.563 559.25L518.48 559.432C516.864 558.843 515.252 558.251 513.639 557.659C511.768 557.18 509.894 556.701 508.019 556.225C506.535 555.621 505.05 555.017 503.565 554.41C480.407 545.913 457.563 536.999 437.954 521.249C422.513 508.845 414.608 495.002 421.662 474.562C428.312 455.301 429.207 432.75 455.207 427.124C460.095 426.064 458.611 420.819 458.197 417.005C456.918 405.185 457.766 393.513 460.554 381.972C470.009 342.81 483.632 333.037 523.401 337.571C549.317 340.525 575.038 338.666 600.243 333.088C690.382 313.139 781.466 313.776 872.83 319.259C911.439 321.577 949.726 326.358 987.835 333.162C1027.82 340.302 1063.02 356.151 1095.45 381.125C1127.57 405.863 1158.11 433.716 1198.81 445.629C1212.69 449.69 1219.77 447.929 1226.63 434.898C1238.89 411.632 1253.78 389.863 1268.9 368.281C1276.9 356.862 1284.9 352.664 1298.18 360.334C1308.29 366.168 1319.61 369.959 1330.54 374.258C1343.24 379.253 1350.64 376.382 1351.12 361.006C1351.56 347.044 1353.51 333.12 1354.99 319.203C1355.64 313.047 1355.8 306.802 1365.42 307.793C1374.06 308.682 1375.19 313.282 1374.43 320.283C1371.87 344.224 1369.29 368.168 1366.98 392.136C1365.95 402.742 1360.53 405.217 1350.97 402.337C1333.22 396.994 1316.09 390.032 1299.62 381.666C1289.1 376.323 1282.52 378.147 1276.05 388.25C1263.95 407.142 1253.2 426.719 1242.61 446.456C1234.61 461.382 1244.37 473.25 1247.81 486.41C1251.99 502.416 1261.27 508.548 1277.95 508.134C1291.17 507.807 1307.07 505.638 1317.21 513.549C1327.62 521.665 1324.01 538.377 1324.9 550.911C1326.27 570.175 1332.79 584.926 1347.24 597.184C1353.97 602.89 1356.11 611.256 1356 620.033C1355.86 631.228 1355.69 642.421 1355.54 653.614C1350.58 676.567 1351.33 700.41 1344.44 723.113C1342.03 731.048 1338.35 736.692 1329.62 736.144C1316.92 735.35 1303.93 734.91 1293.58 725.719C1302.65 712.349 1311.48 699 1315.37 682.85C1322.45 653.506 1310.2 618.254 1286.81 602.628C1265.04 588.092 1240.57 591.989 1211.64 613.824C1203.68 619.831 1195 625.186 1185.98 629.414C1163.8 639.803 1149.89 655.17 1151.4 681.137C1136.22 676.079 1120.63 676.576 1105.02 677.923C1082.2 679.902 1059.4 681.797 1036.76 676.249ZM878.132 342.373C858.439 340.302 838.899 342.778 819.489 344.884C782.341 348.915 746.782 358.037 716.941 382.324C713.165 385.397 707.227 388.131 708.423 393.766C709.67 399.63 716.376 399.032 721.023 400.059C784.899 414.164 848.851 427.945 912.683 442.249C922.95 444.549 928.002 441.395 931.81 431.949C940.643 410.034 946.573 387.42 950.964 364.273C953.029 353.387 949.045 348.99 938.239 348.178C918.172 346.675 898.164 344.355 878.132 342.373ZM1193.11 507.985C1204.12 508.125 1216.04 507.372 1219.63 495.222C1223.35 482.643 1211.48 477.758 1202.88 473.628C1172.05 458.821 1143.38 440.274 1113.71 423.47C1075.24 401.686 1036.43 380.669 994.598 365.755C985.33 362.449 981.153 362.75 979.219 374.103C975.283 397.223 970.136 420.188 964.319 442.916C961.008 455.858 965.144 458.779 977.666 460.13C1037.21 466.547 1096.32 475.443 1152.44 498.072C1165.39 503.291 1179.02 506.772 1193.11 507.985Z" fill="#00B4AA"/>
<path d="M1870.23 711.909C1749.46 711.93 1628.68 711.867 1507.9 712.144C1499.35 712.165 1491.48 709.588 1483.23 708.74C1482.52 706.708 1482.45 703.745 1481.03 702.784C1446.19 679.23 1418.12 650.201 1404.46 609.325C1406.06 600.519 1407.29 591.629 1409.34 582.93C1412.06 571.315 1418.41 562.172 1430.57 559.167C1447.22 555.053 1448.83 545.422 1442.32 531.537C1434.95 515.816 1427.52 500.08 1421.19 483.931C1416.23 471.296 1407.73 457.414 1421.6 445.323C1440.83 428.567 1464.07 426.32 1481.18 438.471C1487.17 434.011 1487.06 426.701 1488.9 420.548C1496.51 395.105 1510.2 373.702 1530.69 356.916C1546.24 344.173 1562.67 335.209 1584.56 340.701C1599.86 344.539 1615.75 342.617 1630.65 336.021C1651.55 326.771 1673.43 324.323 1696.24 324.817C1737.15 325.706 1778.09 325.433 1819.01 324.846C1830.09 324.689 1837.85 328.479 1845.7 335.861C1869.94 358.659 1886.24 386.545 1898.64 416.833C1902.59 426.481 1906.43 430.92 1918 429.435C1932.35 427.597 1947.1 428.662 1961.67 428.87C1982.68 429.17 1992.67 439.119 1993.12 459.651C1993.57 479.95 1983.77 490.908 1963.49 492.776C1960.79 493.026 1958.09 493.267 1955.52 493.499C1954.24 498.771 1957.62 501.425 1960.26 504.055C1986.62 530.26 1995.38 563.398 1996.5 598.957C1997.59 633.121 1997.11 667.332 1997.31 701.522C1996.99 705.102 1996.67 708.681 1996.35 712.26C1954.32 712.141 1912.27 712.025 1870.23 711.909ZM1852.29 473.033C1857.48 473.033 1863.71 472.432 1869.79 473.167C1880.51 474.461 1882.2 470.109 1879.08 460.93C1867.3 426.284 1852.41 393.204 1830.96 363.333C1827.95 359.141 1824.83 355.449 1818.93 355.467C1769.09 355.616 1719.2 352.179 1669.44 357.059C1637.92 360.15 1606.97 371.491 1574.68 362.435C1568.61 360.733 1562.01 363.443 1557.15 366.984C1525.98 389.699 1505.34 419.352 1500.39 458.285C1498.92 469.799 1502.74 474.863 1515.84 468.722C1563.01 446.62 1610.51 444.129 1658.1 468.353C1670.19 474.509 1683.54 478.011 1697.19 475.934C1748.45 468.121 1799.83 468.564 1852.29 473.033ZM1506.33 559.836C1491.16 559.468 1477.51 561.988 1465.1 569.312C1453.68 576.048 1451.84 585.988 1462.56 593.066C1487.53 609.554 1514.74 618.179 1545.31 610.896C1553.82 608.867 1556.17 598.055 1563.7 597.559C1600.14 595.152 1634.56 580.377 1671.13 580.005C1728.25 579.422 1785.39 580.136 1842.52 579.627C1853.36 579.529 1859.36 582.481 1864.69 592.498C1875.24 612.312 1896.59 619.634 1918.06 613.128C1934.64 608.102 1948.48 588.939 1948.64 570.761C1948.81 552.039 1934.65 532.867 1916.85 527.725C1896.14 521.745 1875.26 529.032 1864.84 547.954C1859.6 557.465 1854.31 561.384 1843.02 561.44C1749.14 561.907 1654.85 555.049 1561.98 575.504C1555.87 576.851 1551.21 575.263 1546.48 571.615C1534.4 562.3 1520.48 558.92 1506.33 559.836ZM1799 646.791C1799.07 646.791 1799.14 646.791 1799.21 646.791C1799.21 655.729 1798.97 664.675 1799.32 673.598C1799.46 677.15 1801.73 679.976 1805.87 679.503C1809.01 679.146 1810.95 676.686 1810.98 673.773C1811.16 656.467 1811.23 639.154 1810.98 621.848C1810.93 618.474 1808.88 615.148 1804.86 615.079C1799.35 614.987 1799.1 619.37 1799.03 623.326C1798.9 631.148 1799 638.97 1799 646.791ZM1635.74 621.378C1632.33 621.625 1633.1 627.063 1634.53 631.975C1638.65 646.167 1643.28 660.212 1647.53 674.368C1648.84 678.733 1649.71 684.133 1655.63 682.669C1661.13 681.306 1660.87 676.01 1659.63 671.494C1655.53 656.473 1651.07 641.543 1647.1 626.486C1646.04 622.452 1644.07 620.842 1635.74 621.378ZM1617.2 614.648C1609.67 615.055 1609.52 620.069 1611.18 625.302C1615.97 640.428 1621.11 655.446 1626.16 670.489C1627.38 674.145 1628.32 678.807 1633.77 676.879C1637.67 675.499 1637.44 671.506 1636.62 668.302C1632.61 652.78 1628.26 637.345 1624.24 621.827C1623.22 617.876 1622.75 613.937 1617.2 614.648ZM1702.63 663.744C1700.8 648.264 1699.05 632.775 1697.09 617.311C1696.6 613.437 1695.7 608.796 1690.54 609.257C1684.48 609.798 1684.33 614.993 1684.9 619.48C1686.87 634.935 1689.13 650.359 1691.34 665.782C1691.93 669.911 1693.59 674.092 1698.46 673.169C1703.14 672.286 1703.49 667.879 1702.63 663.744ZM1680.9 662.304C1678.75 647.431 1676.53 631.96 1674.26 616.498C1673.74 612.961 1672.18 609.266 1668.4 609.423C1662.91 609.65 1663.21 614.577 1663.64 618.376C1665.39 633.9 1667.3 649.413 1669.46 664.883C1669.98 668.582 1670.68 673.726 1675.75 673.395C1682.37 672.961 1680.29 667.04 1680.9 662.304ZM1595.29 628.173C1590.07 628.887 1589.38 632.85 1590.8 636.715C1596.53 652.316 1602.61 667.79 1608.72 683.246C1610.02 686.528 1612.61 689.051 1616.45 687.756C1621.77 685.962 1620.31 681.839 1618.85 678.156C1613 663.277 1607.09 648.416 1601.09 633.591C1600.07 631.08 1598.89 628.408 1595.29 628.173ZM1727.54 646.711C1727.54 638.919 1727.6 631.124 1727.51 623.332C1727.47 619.756 1726.16 616.219 1722.41 615.722C1717.78 615.109 1717.35 619.2 1717.32 622.505C1717.19 639.205 1717.18 655.907 1717.26 672.61C1717.27 676.016 1717.88 679.869 1722.48 679.268C1726.31 678.769 1727.57 675.427 1727.58 671.765C1727.58 663.414 1727.57 655.062 1727.54 646.711ZM1789.16 646.821C1789.13 646.821 1789.09 646.821 1789.05 646.821C1789.05 638.422 1789.17 630.023 1788.99 621.628C1788.92 618.876 1788.27 615.755 1784.69 615.493C1781.46 615.255 1779.07 617.549 1779.02 620.411C1778.71 638.297 1778.65 656.193 1778.79 674.083C1778.81 677.052 1781.27 679.399 1784.3 679.337C1788.89 679.245 1789.07 675.365 1789.12 672.018C1789.25 663.622 1789.16 655.22 1789.16 646.821ZM1758.19 645.28C1758.17 645.28 1758.15 645.28 1758.13 645.28C1758.13 653.673 1758.07 662.066 1758.16 670.456C1758.2 673.892 1758.72 677.623 1762.95 678.037C1767.2 678.45 1768.76 675.127 1768.78 671.542C1768.85 654.762 1768.79 637.979 1768.58 621.202C1768.54 618.346 1767.12 615.407 1763.88 615.154C1759.47 614.812 1758.34 618.313 1758.25 621.782C1758.05 629.61 1758.19 637.446 1758.19 645.28ZM1747.98 647.154C1747.93 647.154 1747.89 647.154 1747.85 647.154C1747.85 638.842 1747.95 630.526 1747.8 622.217C1747.74 618.727 1746.7 615.374 1742.26 615.642C1738.8 615.85 1737.88 618.763 1737.87 621.61C1737.77 638.238 1737.76 654.863 1737.86 671.491C1737.88 674.957 1738.81 678.498 1743.31 677.992C1747.55 677.516 1747.91 673.806 1747.95 670.435C1748.04 662.676 1747.98 654.914 1747.98 647.154Z" fill="#4443BC"/>
<path d="M1404.46 609.322C1418.12 650.198 1446.19 679.227 1481.03 702.781C1482.45 703.745 1482.52 706.708 1483.23 708.737C1473.96 717.603 1464.97 726.79 1455.35 735.264C1441.7 747.295 1426.56 746.691 1413.69 733.66C1399.2 718.978 1385.43 703.569 1370.73 689.101C1361.17 679.697 1356.77 669.224 1359.31 655.997C1371.16 637.342 1389.04 624.522 1404.46 609.322Z" fill="#282526"/>
<path d="M856.842 638.631C858.484 639.104 860.127 639.58 861.772 640.05C860.133 639.574 858.487 639.104 856.842 638.631Z" fill="#D3D3D3"/>
<path d="M826.659 632.353C828.01 632.814 829.357 633.275 830.708 633.734C829.36 633.272 828.01 632.814 826.659 632.353Z" fill="#D3D3D3"/>
<path d="M513.639 557.656C515.252 558.248 516.864 558.84 518.48 559.429C516.867 558.837 515.255 558.245 513.639 557.656Z" fill="#D3D3D3"/>
<path d="M503.565 554.407C505.05 555.011 506.534 555.618 508.019 556.222C506.537 555.615 505.053 555.011 503.565 554.407Z" fill="#D3D3D3"/>
<path d="M1293.59 725.732C1273.41 739.45 1252.31 750.735 1226.75 747.766C1186.29 743.068 1162.99 718.68 1151.41 681.158C1149.89 655.185 1163.81 639.818 1185.98 629.429C1195 625.201 1203.69 619.846 1211.65 613.839C1240.58 592.004 1265.05 588.107 1286.81 602.643C1310.21 618.269 1322.45 653.518 1315.38 682.865C1311.48 699.009 1302.65 712.361 1293.59 725.732ZM1193.22 677.962C1200.6 697.872 1214.87 708.69 1233.85 708.77C1252.97 708.85 1267.06 698.494 1275 678.525C1279.1 672.497 1277.92 665.666 1277.36 659.186C1276.47 648.862 1273.04 638.988 1262.81 634.739C1253.43 630.839 1245.81 636.685 1238.84 642.597C1227.76 652.007 1214.98 658.671 1202.26 665.526C1197.8 667.927 1188.97 668.638 1193.22 677.962Z" fill="#282526"/>
<path d="M1870.23 711.909C1912.27 712.025 1954.32 712.141 1996.36 712.257C1996.52 720.573 1997.45 728.957 1996.69 737.189C1995.23 753.177 1985.47 762.469 1969.38 762.867C1947.15 763.418 1924.89 763.245 1902.64 763.079C1880.4 762.909 1871.32 753.992 1870.47 731.932C1870.22 725.261 1870.3 718.582 1870.23 711.909Z" fill="#282526"/>
<path d="M1852.29 473.033C1799.83 468.564 1748.45 468.121 1697.18 475.931C1683.54 478.011 1670.19 474.506 1658.1 468.35C1610.51 444.127 1563.01 446.617 1515.84 468.719C1502.73 474.86 1498.92 469.793 1500.38 458.282C1505.34 419.349 1525.98 389.696 1557.15 366.981C1562.01 363.44 1568.61 360.733 1574.67 362.432C1606.97 371.488 1637.92 360.147 1669.43 357.056C1719.2 352.176 1769.09 355.616 1818.93 355.464C1824.82 355.446 1827.95 359.141 1830.96 363.33C1852.4 393.201 1867.29 426.285 1879.08 460.927C1882.2 470.106 1880.51 474.458 1869.78 473.164C1863.72 472.432 1857.48 473.033 1852.29 473.033Z" fill="#D3D3D3"/>
<path d="M1506.33 559.836C1520.48 558.92 1534.4 562.3 1546.48 571.606C1551.21 575.254 1555.87 576.842 1561.98 575.495C1654.85 555.04 1749.14 561.898 1843.02 561.431C1854.32 561.375 1859.6 557.456 1864.84 547.945C1875.27 529.02 1896.15 521.736 1916.85 527.716C1934.65 532.858 1948.81 552.03 1948.64 570.752C1948.48 588.93 1934.64 608.093 1918.06 613.118C1896.59 619.625 1875.24 612.303 1864.69 592.489C1859.36 582.471 1853.36 579.523 1842.52 579.618C1785.39 580.127 1728.25 579.413 1671.13 579.996C1634.56 580.368 1600.14 595.146 1563.7 597.55C1556.17 598.046 1553.82 608.858 1545.31 610.887C1514.74 618.17 1487.53 609.545 1462.56 593.057C1451.84 585.979 1453.68 576.042 1465.1 569.303C1477.51 561.99 1491.15 559.467 1506.33 559.836Z" fill="#D3D3D3"/>
<path d="M1799 646.791C1799 638.97 1798.91 631.148 1799.04 623.326C1799.1 619.366 1799.36 614.987 1804.87 615.079C1808.88 615.148 1810.93 618.474 1810.98 621.848C1811.23 639.154 1811.17 656.467 1810.98 673.773C1810.95 676.686 1809.01 679.146 1805.87 679.503C1801.73 679.976 1799.46 677.15 1799.32 673.598C1798.97 664.675 1799.21 655.729 1799.21 646.791C1799.13 646.791 1799.07 646.791 1799 646.791Z" fill="#D3D3D3"/>
<path d="M1635.74 621.378C1644.07 620.842 1646.04 622.455 1647.1 626.483C1651.07 641.54 1655.53 656.47 1659.63 671.491C1660.87 676.01 1661.13 681.306 1655.63 682.666C1649.71 684.13 1648.84 678.73 1647.53 674.365C1643.28 660.209 1638.65 646.167 1634.53 631.972C1633.1 627.06 1632.33 621.625 1635.74 621.378Z" fill="#D3D3D3"/>
<path d="M1617.19 614.666C1622.75 613.937 1623.22 617.873 1624.24 621.827C1628.26 637.348 1632.61 652.78 1636.62 668.302C1637.44 671.506 1637.67 675.499 1633.77 676.879C1628.32 678.807 1627.38 674.145 1626.16 670.489C1621.11 655.443 1615.97 640.428 1611.18 625.302C1609.52 620.066 1609.67 615.056 1617.19 614.666Z" fill="#D3D3D3"/>
<path d="M1702.63 663.744C1703.49 667.882 1703.13 672.289 1698.46 673.169C1693.59 674.089 1691.93 669.911 1691.34 665.782C1689.12 650.356 1686.87 634.936 1684.9 619.48C1684.33 614.993 1684.48 609.798 1690.54 609.257C1695.7 608.796 1696.6 613.437 1697.09 617.311C1699.05 632.773 1700.8 648.264 1702.63 663.744Z" fill="#D3D3D3"/>
<path d="M1680.9 662.304C1680.29 667.037 1682.37 672.961 1675.76 673.392C1670.68 673.725 1669.98 668.579 1669.46 664.88C1667.3 649.41 1665.39 633.897 1663.65 618.373C1663.22 614.576 1662.92 609.65 1668.4 609.421C1672.18 609.266 1673.75 612.961 1674.26 616.495C1676.53 631.96 1678.75 647.431 1680.9 662.304Z" fill="#D3D3D3"/>
<path d="M1595.29 628.173C1598.89 628.408 1600.07 631.083 1601.08 633.591C1607.08 648.416 1612.99 663.274 1618.85 678.156C1620.3 681.842 1621.77 685.965 1616.45 687.756C1612.61 689.051 1610.02 686.528 1608.72 683.246C1602.61 667.787 1596.53 652.316 1590.8 636.715C1589.38 632.85 1590.07 628.887 1595.29 628.173Z" fill="#D3D3D3"/>
<path d="M1727.56 646.711C1727.58 655.063 1727.58 663.411 1727.57 671.762C1727.57 675.427 1726.31 678.766 1722.48 679.265C1717.88 679.866 1717.27 676.011 1717.25 672.607C1717.18 655.907 1717.19 639.205 1717.32 622.502C1717.35 619.2 1717.78 615.106 1722.41 615.719C1726.16 616.216 1727.47 619.753 1727.51 623.329C1727.6 631.124 1727.54 638.919 1727.56 646.711Z" fill="#D3D3D3"/>
<path d="M1789.16 646.821C1789.16 655.22 1789.24 663.622 1789.12 672.021C1789.07 675.365 1788.89 679.244 1784.3 679.34C1781.27 679.402 1778.81 677.055 1778.79 674.086C1778.66 656.196 1778.71 638.3 1779.03 620.414C1779.08 617.552 1781.46 615.255 1784.69 615.496C1788.27 615.761 1788.93 618.879 1788.99 621.631C1789.18 630.023 1789.06 638.425 1789.06 646.824C1789.09 646.821 1789.13 646.821 1789.16 646.821Z" fill="#D3D3D3"/>
<path d="M1758.19 645.28C1758.19 637.446 1758.05 629.613 1758.25 621.785C1758.34 618.316 1759.47 614.811 1763.88 615.156C1767.12 615.409 1768.54 618.349 1768.58 621.205C1768.79 637.985 1768.85 654.765 1768.78 671.545C1768.76 675.13 1767.2 678.456 1762.95 678.039C1758.72 677.626 1758.2 673.895 1758.16 670.459C1758.07 662.066 1758.13 653.673 1758.13 645.283C1758.15 645.28 1758.17 645.28 1758.19 645.28Z" fill="#D3D3D3"/>
<path d="M1747.98 647.154C1747.98 654.914 1748.04 662.676 1747.95 670.432C1747.91 673.803 1747.55 677.513 1743.3 677.989C1738.8 678.495 1737.87 674.954 1737.85 671.488C1737.76 654.86 1737.76 638.235 1737.86 621.607C1737.88 618.762 1738.79 615.847 1742.25 615.638C1746.69 615.371 1747.73 618.724 1747.79 622.214C1747.95 630.523 1747.84 638.839 1747.84 647.151C1747.89 647.154 1747.93 647.154 1747.98 647.154Z" fill="#D3D3D3"/>
<path d="M632.735 625.617C586.691 624.103 551.159 586.931 552.29 541.468C553.453 494.686 590.836 458.922 637.317 460.118C682.548 461.284 719.187 499.584 717.958 544.413C716.676 591.174 678.933 627.135 632.735 625.617ZM679.019 542.625C678.856 518.461 659.553 499.438 635.091 499.337C610.847 499.235 591.077 518.541 590.916 542.471C590.752 567.108 611.016 587.137 635.799 586.821C659.666 586.521 679.18 566.566 679.019 542.625Z" fill="#282526"/>
<path d="M2233.11 791.561L241.246 800.22C226.543 800.179 90.9584 807.487 91 792.783L157.941 771.956C189.18 761.543 226.543 754.063 241.246 754.105L2492.3 776.498C2507 776.539 2460.23 776.857 2460.19 791.561H2422.38C2422.34 806.265 2247.82 791.602 2233.11 791.561Z" fill="#4443BC"/>
<path d="M1035.02 42.8769L1045.38 88.6981L1038.18 90.4298L1026.58 44.9071L1035.02 42.8769ZM1046.2 107.932C1044.67 108.3 1043.23 108.068 1041.87 107.235C1040.51 106.403 1039.64 105.221 1039.27 103.691C1038.9 102.16 1039.14 100.715 1039.97 99.3546C1040.8 97.9946 1041.98 97.1305 1043.51 96.7622C1045.05 96.394 1046.49 96.6262 1047.85 97.4587C1049.21 98.2913 1050.07 99.4729 1050.44 101.004C1050.69 102.017 1050.65 103.01 1050.34 103.983C1050.05 104.95 1049.54 105.794 1048.81 106.516C1048.11 107.211 1047.24 107.683 1046.2 107.932Z" fill="#00B4AA"/>
<path d="M1653.83 -1.02613L1649.29 45.7294L1641.91 45.1127L1645.19 -1.74916L1653.83 -1.02613ZM1644.02 64.2463C1642.45 64.1152 1641.16 63.4408 1640.13 62.2233C1639.1 61.0058 1638.65 59.6127 1638.78 58.0439C1638.91 56.4752 1639.58 55.176 1640.8 54.1463C1642.02 53.1166 1643.41 52.6674 1644.98 52.7985C1646.55 52.9297 1647.85 53.604 1648.88 54.8215C1649.91 56.039 1650.36 57.4321 1650.23 59.0009C1650.14 60.0397 1649.79 60.9715 1649.19 61.7964C1648.61 62.623 1647.86 63.265 1646.95 63.7224C1646.06 64.1603 1645.08 64.3349 1644.02 64.2463Z" fill="#4443BC"/>
</g>
<defs>
<clipPath id="clip0_1_367">
<rect width="2404.16" height="826" fill="white"/>
</clipPath>
</defs>
</svg>
